<svg id="Layer_1" data-name="Layer 1" xmlns="http://www.w3.org/2000/svg" viewBox="0 0 500 500"><path d="M349.72,78a1.34,1.34,0,0,1,.95.39l9,9a1.36,1.36,0,0,1,0,1.91L128.38,320a1.31,1.31,0,0,1-.45.3L112.8,326.4a1.35,1.35,0,0,1-1.76-1.76l6.16-15.13a1.37,1.37,0,0,1,.3-.45L348.75,78.39A1.4,1.4,0,0,1,349.72,78Zm7,10.33-7-7.06L119.61,310.78l-4.85,11.9,11.91-4.84Z" style="fill:#e62146;stroke:#e62146;stroke-miterlimit:10;stroke-width:4.101950168609619px"/><path d="M346.75,64.26A6,6,0,0,1,351,66L372,87.08a6,6,0,1,1-8.41,8.42L342.55,74.42a6,6,0,0,1,4.2-10.16Zm21.08,29.67a2.65,2.65,0,0,0,1.88-4.5L348.62,68.34a2.64,2.64,0,0,0-3.73,3.74L366,93.16A2.66,2.66,0,0,0,367.83,93.93Z" style="fill:#e62146;stroke:#e62146;stroke-miterlimit:10;stroke-width:4.101950168609619px"/><path d="M381.1,49h6.6a1.35,1.35,0,0,1,1.36,1.35V57a6.55,6.55,0,0,1-6.22,6.54L364.56,81.77a1.36,1.36,0,0,1-1.91,0l-6.38-6.37a1.35,1.35,0,0,1,0-1.91l18.29-18.28A6.54,6.54,0,0,1,381.1,49Zm5.25,2.71h-5.26a3.82,3.82,0,0,0-3.83,3.83v.24a1.37,1.37,0,0,1-.4,1L359.15,74.44l4.45,4.46,17.72-17.72a1.32,1.32,0,0,1,.95-.39h.24A3.85,3.85,0,0,0,386.35,57Z" style="fill:#e62146;stroke:#e62146;stroke-miterlimit:10;stroke-width:4.101950168609619px"/><path d="M362.69,68.79c4.6,0,9.35,2.76,9.56,2.9A1.35,1.35,0,1,1,370.88,74c-.05,0-5.2-3-9.26-2.44a1.34,1.34,0,0,1-1.52-1.15,1.37,1.37,0,0,1,1.16-1.53A9.63,9.63,0,0,1,362.69,68.79Z" style="fill:#e62146;stroke:#e62146;stroke-miterlimit:10;stroke-width:4.101950168609619px"/><path d="M371.11,60.36c4.6,0,9.35,2.76,9.56,2.9a1.35,1.35,0,1,1-1.37,2.33c-.05,0-5.19-3-9.25-2.44a1.35,1.35,0,0,1-.37-2.68A8.53,8.53,0,0,1,371.11,60.36Z" style="fill:#e62146;stroke:#e62146;stroke-miterlimit:10;stroke-width:4.101950168609619px"/><path d="M354.2,82.48a1.41,1.41,0,0,1,1,.4,1.38,1.38,0,0,1,0,1.92L129.67,309.69a1.35,1.35,0,1,1-1.92-1.91L353.24,82.88A1.4,1.4,0,0,1,354.2,82.48Z" style="fill:#e62146"/><path d="M151.25,78.39,382.5,309.06a1.37,1.37,0,0,1,.3.45L389,324.64a1.35,1.35,0,0,1-1.76,1.76l-15.13-6.15a1.31,1.31,0,0,1-.45-.3L140.35,89.28a1.36,1.36,0,0,1,0-1.91l9-9a1.34,1.34,0,0,1,.95-.39A1.4,1.4,0,0,1,151.25,78.39ZM373.33,317.84l11.91,4.84-4.85-11.9L150.28,81.27l-7.05,7.06Z" style="fill:#e62146;stroke:#e62146;stroke-miterlimit:10;stroke-width:4.101950168609619px"/><path d="M157.45,66a6,6,0,0,1,0,8.42L136.37,95.5A6,6,0,0,1,128,87.08L149.05,66a5.94,5.94,0,0,1,8.4,0ZM134,93.16l21.07-21.08a2.64,2.64,0,0,0-3.73-3.74L130.29,89.43A2.64,2.64,0,0,0,134,93.16Z" style="fill:#e62146;stroke:#e62146;stroke-miterlimit:10;stroke-width:4.101950168609619px"/><path d="M125.44,55.21l18.29,18.28a1.35,1.35,0,0,1,0,1.91l-6.38,6.37a1.36,1.36,0,0,1-1.91,0L117.16,63.49A6.55,6.55,0,0,1,110.94,57V50.34A1.35,1.35,0,0,1,112.3,49h6.6A6.54,6.54,0,0,1,125.44,55.21ZM113.65,57a3.85,3.85,0,0,0,3.84,3.84h.24a1.32,1.32,0,0,1,1,.39L136.4,78.9l4.45-4.46L123.14,56.73a1.37,1.37,0,0,1-.4-1v-.24a3.82,3.82,0,0,0-3.83-3.83h-5.26Z" style="fill:#e62146;stroke:#e62146;stroke-miterlimit:10;stroke-width:4.101950168609619px"/><path d="M137.31,68.79c-4.6,0-9.35,2.76-9.56,2.9A1.35,1.35,0,1,0,129.12,74s5.2-3,9.26-2.44a1.34,1.34,0,0,0,1.52-1.15,1.37,1.37,0,0,0-1.16-1.53A9.63,9.63,0,0,0,137.31,68.79Z" style="fill:#e62146;stroke:#e62146;stroke-miterlimit:10;stroke-width:4.101950168609619px"/><path d="M128.89,60.36c-4.6,0-9.35,2.76-9.56,2.9a1.35,1.35,0,1,0,1.37,2.33s5.19-3,9.25-2.44a1.35,1.35,0,0,0,.37-2.68A8.53,8.53,0,0,0,128.89,60.36Z" style="fill:#e62146;stroke:#e62146;stroke-miterlimit:10;stroke-width:4.101950168609619px"/><path d="M145.8,82.48a1.41,1.41,0,0,0-1,.4,1.38,1.38,0,0,0,0,1.92l225.5,224.89a1.35,1.35,0,1,0,1.92-1.91L146.76,82.88A1.4,1.4,0,0,0,145.8,82.48Z" style="fill:#e62146"/><path d="M249.12,68.56A136.88,136.88,0,1,0,386,205.44,136.89,136.89,0,0,0,249.12,68.56Z" style="fill:#fff;stroke:#71c5c6;stroke-linecap:round;stroke-linejoin:round;stroke-width:10.254875421524048px"/><path d="M249.12,304.2s4.08-3.06,9.87-7.95H239.25C245,301.14,249.12,304.2,249.12,304.2Z" style="fill:#e62146"/><path d="M230.41,288.49h37.42c2.69-2.48,5.49-5.15,8.24-7.95h-53.9C224.92,283.34,227.71,286,230.41,288.49Z" style="fill:#e62146"/><path d="M271,217.71a27,27,0,0,0-19.14,7.94h38.29A27,27,0,0,0,271,217.71Z" style="fill:#e62146"/><path d="M227.23,217.71a27,27,0,0,0-19.15,7.94h38.28A27,27,0,0,0,227.23,217.71Z" style="fill:#e62146"/><path d="M215,272.78h68.32c2.26-2.62,4.4-5.28,6.31-7.94H208.65C210.56,267.5,212.69,270.16,215,272.78Z" style="fill:#e62146"/><path d="M203.79,257.07h90.65a34.47,34.47,0,0,0,3.1-7.94H200.7A34.41,34.41,0,0,0,203.79,257.07Z" style="fill:#e62146"/><path d="M202.66,233.42a27.21,27.21,0,0,0-2.28,7.94h97.48a26.92,26.92,0,0,0-2.29-7.94Z" style="fill:#e62146"/><path d="M325.13,271.09a2,2,0,0,1-1.56,1.86l-5.9,1a29.78,29.78,0,0,1-1.71,4.2c-3.64,6.94-22.91,32.86-55.21,38.12-3.7.61-19.56.61-23.26,0-32.3-5.26-51.57-31.18-55.21-38.12a29.78,29.78,0,0,1-1.71-4.2l-5.9-1a2,2,0,0,1-1.56-1.86V256.54a2.14,2.14,0,0,1,1.54-2l3.23-.78c.51-12.29,5-27.11,18.85-40.29,26.78-25.38,25.6-20.12,32.79-34.08S241.6,158,249.12,158s12.4,7.5,19.6,21.44,6,8.7,32.78,34.08c13.9,13.18,18.35,28,18.86,40.29l3.23.78a2.14,2.14,0,0,1,1.54,2ZM172.28,146.94A96.6,96.6,0,0,0,173.11,265m60.64-154.93A95.73,95.73,0,0,0,203,120.56m92.21,0a95.93,95.93,0,0,0-30.75-10.47M325.13,265A96.58,96.58,0,0,0,326,146.93" style="fill:none;stroke:#71c5c6;stroke-linecap:round;stroke-linejoin:round;stroke-width:10.254875421524048px"/><path d="M72.5,390.27c13.21,0,20,6.83,20,6.83l-4.86,7.28a23.22,23.22,0,0,0-14.34-5.16c-12.07,0-18.52,8.35-18.52,18.52,0,11.68,8,19.27,18.06,19.27a20.3,20.3,0,0,0,13.51-5.61v-6.3H78.12v-8.42H95.19v28.38H86.85v-2.58c0-1.14.07-2.28.07-2.28h-.15A22.85,22.85,0,0,1,71.14,446C57,446,44.73,435,44.73,418,44.73,402.41,56.49,390.27,72.5,390.27Z" style="fill:#1d1d1b"/><path d="M121.22,391.18H131v45.45h23.3v8.43H121.22Z" style="fill:#1d1d1b"/><path d="M205.83,431.25H186.94l-4.55,13.81h-10.1l19-53.88h10.25l19,53.88H210.39Zm-9.48-30.74s-1.22,5.31-2.28,8.35l-4.78,14.42h14.12l-4.79-14.42c-1-3-2.12-8.35-2.12-8.35Z" style="fill:#1d1d1b"/><path d="M242.56,391.18h18.37c16.61,0,27.47,9.86,27.47,26.86s-10.86,27-27.47,27H242.56Zm17.84,45.45c10.92,0,17.9-6.45,17.9-18.59s-7.13-18.44-17.9-18.44h-8v37Z" style="fill:#1d1d1b"/><path d="M313.82,391.18h9.79v53.88h-9.79Z" style="fill:#1d1d1b"/><path d="M351.69,391.18h9.78v34.53c0,7.21,4.71,11.3,11.92,11.3s12-4.09,12-11.38V391.18h9.79v34.53c0,12.06-8.73,20.26-21.71,20.26s-21.77-8.2-21.77-20.26Z" style="fill:#1d1d1b"/><path d="M424.46,431.25s5.84,5.69,13.43,5.69c4.1,0,7.82-2.13,7.82-6.53,0-9.64-25.42-8-25.42-24.51,0-8.95,7.74-15.63,18.06-15.63,10.62,0,16.08,5.77,16.08,5.77l-4.25,8s-5.16-4.7-11.91-4.7c-4.55,0-8.12,2.66-8.12,6.45,0,9.56,25.35,7.21,25.35,24.43,0,8.58-6.53,15.79-17.76,15.79a26.08,26.08,0,0,1-18.59-7.36Z" style="fill:#1d1d1b"/></svg>